# xmcd CD database file
#
# Track frame offsets:
#	150
#	19402
#	38346
#	57540
#	75527
#	96096
#	113836
#	132327
#	148843
#	166808
#	186040
#	205006
#	220022
#	239257
#	263571
#	282117
#
# Disc length: 4116 seconds
#
# Revision: 0
# Processed by: cddbd v1.5.1PL2 Copyright (c) Steve Scherf et al.
# Submitted via: CDex 1.50
#
DISCID=d9101210
DTITLE=Various Artist - Merengue Que Hicieron Historia
DYEAR=1900
DGENRE=Merengue
TTITLE0=La calambrina - Luis Mariano
TTITLE1=La llorona - Anibal Bravo
TTITLE2=Todo es para ti - Wilfrido Vargas
TTITLE3=Las locas - Hnos. Rosario
TTITLE4=Faltaste a la cita - Nando Galan
TTITLE5=La medallita - La Gentes del Pais
TTITLE6=Pequenas cosas - Chicas Del-Can
TTITLE7=La flaca - Coco Band
TTITLE8=Mi pueblo - Villalona
TTITLE9=Ay amor - Cuco valoy canta Gaby
TTITLE10=El nene se desperto - Conj Quisquella
TTITLE11=La vecinita - Ricardo Jose
TTITLE12=Balsie - Los Hijos del Rey
TTITLE13=Fiesta y fiesta - Dionis Fernandez
TTITLE14=Una fodo grafia - Bonny Cepeda
TTITLE15=Las avispa - Wilfrindo Vargas
EXTD=
EXTT0=
EXTT1=
EXTT2=
EXTT3=
EXTT4=
EXTT5=
EXTT6=
EXTT7=
EXTT8=
EXTT9=
EXTT10=
EXTT11=
EXTT12=
EXTT13=
EXTT14=
EXTT15=
PLAYORDER=
